<svg width="120" height="120" viewBox="0 0 120 120" fill="none" xmlns="http://www.w3.org/2000/svg">
    <g clip-path="url(#a)">
        <path opacity=".2" d="M41.95 47.01h36.74V34.73A18.76 18.76 0 0 0 59.95 16a18.75 18.75 0 0 0-18.73 18.73v12.28h.73z" fill="#fff"/>
        <path opacity=".1" d="M85.5 55.51c0-2.71 0-4.08-.49-5a4.5 4.5 0 0 0-2-2c-1-.5-2.33-.5-5-.5h-36c-2.72 0-4.08 0-5.05.5a4.42 4.42 0 0 0-2 2c-.49 1-.49 2.33-.49 5v.11a2.997 2.997 0 0 0 0 .83.58.58 0 0 0 .22.22c.275.038.555.038.83 0h48.8c.272.038.548.038.82 0a.47.47 0 0 0 .22-.22 2.54 2.54 0 0 0 .06-.83l.08-.11z" fill="#fff"/>
        <path opacity=".2" d="M91.5 17a2.5 2.5 0 1 0 0-5 2.5 2.5 0 0 0 0 5z" fill="#fff"/>
        <path opacity=".1" d="M75.71 9.43a1.72 1.72 0 0 0 1.72-1.72A1.72 1.72 0 0 0 75.71 6 1.71 1.71 0 0 0 74 7.71a1.711 1.711 0 0 0 1.71 1.72zM111.71 89.43a1.717 1.717 0 0 0 1.589-1.062 1.71 1.71 0 0 0 .131-.658 1.723 1.723 0 0 0-1.72-1.71 1.718 1.718 0 0 0-1.71 1.71 1.721 1.721 0 0 0 1.71 1.72z" fill="#fff"/>
        <path opacity=".3" d="M85.95 50.07a5.56 5.56 0 0 0-2.41-2.41 8.361 8.361 0 0 0-3.76-.59V34.73A19.759 19.759 0 0 0 59.95 15a19.75 19.75 0 0 0-19.73 19.73v12.34a8.411 8.411 0 0 0-3.76.59 5.56 5.56 0 0 0-2.41 2.41c-.6 1.17-.6 2.62-.6 5.49v.11c-.049.438.01.88.17 1.29.14.281.369.51.65.65.408.152.847.206 1.28.16h2v7.66c0 9.86 7 18.18 16.42 20.69V97h-9.93a5.13 5.13 0 0 0-5.09 5.07 1.43 1.43 0 0 0 1.42 1.43h39.21a1.43 1.43 0 0 0 1.42-1.43 5.13 5.13 0 0 0-5.12-5.12h-9.93V86.07c9.46-2.51 16.42-10.83 16.42-20.69v-7.66h2a2.84 2.84 0 0 0 1.29-.16 1.46 1.46 0 0 0 .65-.65 2.87 2.87 0 0 0 .16-1.29v-.11c.02-2.87.02-4.32-.52-5.44zM41.31 34.78A18.75 18.75 0 0 1 59.95 16a18.76 18.76 0 0 1 18.74 18.73v12.28H41.22l.09-12.23zm34.64 63.17a4.13 4.13 0 0 1 4.12 4.12.42.42 0 0 1-.42.43H40.44a.412.412 0 0 1-.347-.098.422.422 0 0 1-.143-.332 4.13 4.13 0 0 1 4.12-4.12h31.88zm-20.88-1v-10.1h10v10.1h-10zm26.37-31.57c0 11.29-9.6 20.47-21.4 20.47-11.8 0-21.39-9.18-21.39-20.47v-7.66h1.66v6.55A19.75 19.75 0 0 0 59.95 84a19.76 19.76 0 0 0 19.74-19.73v-6.55h1.66l.09 7.66zm-40.13-1.11v-6.55h37.47v6.55A18.76 18.76 0 0 1 59.95 83a18.75 18.75 0 0 1-18.69-18.73h.05zm44.23-8.65c.038.276.038.555 0 .83a.52.52 0 0 1-.22.22 2.997 2.997 0 0 1-.83 0h-48.8a2.94 2.94 0 0 1-.82 0 .52.52 0 0 1-.22-.22 2.539 2.539 0 0 1-.06-.83v-.11c0-2.71 0-4.08.5-5a4.42 4.42 0 0 1 2-2c1-.5 2.33-.5 5-.5h36c2.72 0 4.08 0 5.05.5a4.42 4.42 0 0 1 2 2c.49 1 .49 2.33.49 5l-.09.11z" fill="#fff"/>
        <path opacity=".05" d="m45.47 22.92.31-.35-.31.35zM44.32 24.51l.3-.45-.3.45zM46.53 21.74l.37-.38-.37.38zM49.62 19.15l-.36.25.36-.25zM73.1 21.37l.36.37-.36-.37zM43.41 26.07c.07-.14.13-.27.21-.4-.08.12-.14.25-.21.4zM72.05 20.41l-.4-.32.4.32zM70.69 19.38l-.31-.23.31.23zM48.36 20.07l-.43.34.43-.34zM77.33 27.65l-.21-.49.21.49zM76.59 26.07l-.22-.43.22.43zM77.95 29.49c-.05-.16-.09-.32-.14-.48.07.16.14.32.14.48zM78.37 31.07c0-.16-.07-.31-.1-.47.03.19.07.34.1.47zM78.65 33.12v-.55c-.03.19-.01.37 0 .55zM42.66 27.64l.21-.47-.21.47zM42.03 29.47c0-.15.08-.3.13-.45-.05.15-.09.3-.13.45zM41.62 31.07c0-.15.07-.29.1-.43-.03.16-.07.3-.1.43zM41.34 33.07c0-.17 0-.34.05-.51-.02.2-.03.37-.05.51zM74.52 22.92l-.3-.34.3.34zM75.68 24.51l-.31-.45.31.45z" fill="#fff"/>
        <path opacity=".1" d="M79.6 102.499a.415.415 0 0 0 .3-.126.42.42 0 0 0 .12-.304 4.13 4.13 0 0 0-4.12-4.12H44.09a4.13 4.13 0 0 0-4.14 4.12.429.429 0 0 0 .43.43H79.6z" fill="#fff"/>
        <path opacity=".2" d="M60 40.33a.75.75 0 0 1-.75-.75V22.93a.75.75 0 0 1 .75-.75.76.76 0 0 1 .75.75v16.65a.76.76 0 0 1-.75.75zM51.1 40.33a.76.76 0 0 1-.75-.75v-11.1a.76.76 0 0 1 .75-.75.75.75 0 0 1 .75.75v11.1a.75.75 0 0 1-.75.75zM68.89 40.33a.76.76 0 0 1-.75-.75v-11.1a.76.76 0 0 1 .75-.75.75.75 0 0 1 .75.75v11.1a.75.75 0 0 1-.75.75z" fill="#fff"/>
        <path opacity=".1" d="M64.98 86.85h-9.95v10.1h9.95v-10.1z" fill="#fff"/>
        <g opacity=".3" fill="#fff">
            <path d="M93.5 40a1.5 1.5 0 0 0-1.5 1.5v23a1.5 1.5 0 1 0 3 0v-23a1.5 1.5 0 0 0-1.5-1.5zM107.5 45a1.502 1.502 0 0 0-1.5 1.5v13a1.501 1.501 0 0 0 3 0v-13a1.5 1.5 0 0 0-1.5-1.5zM100.5 31a1.5 1.5 0 0 0-1.5 1.5v41a1.5 1.5 0 1 0 3 0v-41a1.5 1.5 0 0 0-1.5-1.5zM26.5 40a1.5 1.5 0 0 0-1.5 1.5v23a1.5 1.5 0 1 0 3 0v-23a1.5 1.5 0 0 0-1.5-1.5zM12.5 45a1.5 1.5 0 0 0-1.5 1.5v13a1.5 1.5 0 0 0 3 0v-13a1.5 1.5 0 0 0-1.5-1.5zM19.5 31a1.5 1.5 0 0 0-1.5 1.5v41a1.5 1.5 0 0 0 3 0v-41a1.5 1.5 0 0 0-1.5-1.5z"/>
        </g>
        <path opacity=".2" d="M17.5 110a3.501 3.501 0 0 0 2.475-5.975A3.501 3.501 0 0 0 14 106.5a3.5 3.5 0 0 0 3.5 3.5z" fill="#fff"/>
        <path opacity=".05" d="M64.98 86.85h-9.95v10.1h9.95v-10.1zM78.83 47.01h-.1V34.48v12.53h.1zM41.27 48.07a21.648 21.648 0 0 0-3.13.14 23.645 23.645 0 0 1 3.13-.14z" fill="#fff"/>
        <path opacity=".1" d="M107.73 60.97a.852.852 0 0 1-.23 0 1.502 1.502 0 0 1-1.5-1.5v-7.22a47.905 47.905 0 0 0-4-9.52v30.74a1.5 1.5 0 0 1-3 0v-35.4A48.11 48.11 0 0 0 72.81 19.8a19.66 19.66 0 0 1 6.92 15v12.27a8.359 8.359 0 0 1 3.76.59 5.56 5.56 0 0 1 2.46 2.41c.59 1.17.59 2.62.59 5.49v.11a2.87 2.87 0 0 1-.16 1.29 1.46 1.46 0 0 1-.65.65 2.84 2.84 0 0 1-1.29.16h-2v7.66c0 9.86-7 18.18-16.42 20.69V97h9.93a5.13 5.13 0 0 1 5.12 5.12 1.43 1.43 0 0 1-1.42 1.43H40.44a1.424 1.424 0 0 1-1.39-.903 1.426 1.426 0 0 1-.1-.577 5.13 5.13 0 0 1 5.12-5.12H54V86.07c-9.46-2.51-16.42-10.83-16.42-20.69v-7.66h-2a2.821 2.821 0 0 1-1.28-.16 1.46 1.46 0 0 1-.65-.65 2.71 2.71 0 0 1-.17-1.29v-.11c0-2.87 0-4.32.6-5.49a5.56 5.56 0 0 1 2.41-2.41 8.41 8.41 0 0 1 3.76-.59V34.73a19.68 19.68 0 0 1 6.91-15A48.06 48.06 0 0 0 21 38.07v35.47a1.5 1.5 0 1 1-3 0V42.76a47.328 47.328 0 0 0-4 9.52v7.22a1.5 1.5 0 0 1-1.5 1.5c-.08.01-.16.01-.24 0A48 48 0 1 0 108 66c.001-1.68-.089-3.359-.27-5.03zM28 64.5a1.5 1.5 0 1 1-3 0v-23a1.5 1.5 0 1 1 3 0v23zm67 0a1.5 1.5 0 1 1-3 0v-23a1.5 1.5 0 1 1 3 0v23z" fill="#fff"/>
        <path opacity=".05" d="m82.27 48.23-.28-.05.28.05zM81.85 48.15l-.44-.05.44.05zM78.73 48.07c1.11 0 2 0 2.65.07-.68-.06-1.54-.08-2.65-.08v.01zM81.39 57.72v7.66-7.66zM38.03 48.17l-.32.07.32-.07zM38.6 65.38v-7.66 7.66zM34.49 55.62c-.02.264-.003.53.05.79a3.61 3.61 0 0 1 0-.79v-.11c-.096-1.5-.002-3.005.28-4.48a17.723 17.723 0 0 0-.29 4.48l-.04.11z" fill="#fff"/>
        <path opacity=".2" d="M59.95 83a18.76 18.76 0 0 0 18.74-18.73v-6.55H41.22v6.55A18.75 18.75 0 0 0 59.95 83z" fill="#fff"/>
    </g>
    <defs>
        <clipPath id="a">
            <path fill="#fff" transform="translate(11 6)" d="M0 0h102.43v108H0z"/>
        </clipPath>
    </defs>
</svg>
